<svg width="532" height="220" viewBox="0 0 532 220" fill="none" xmlns="http://www.w3.org/2000/svg">
<g clip-path="url(#clip0_3229_187)">
<path d="M212.326 70.4153C213.725 70.1867 214.923 71.4264 214.639 72.8116L208.143 105.294L201.979 136.128C201.66 137.721 199.693 138.309 198.551 137.16L186.77 125.289C186.036 124.548 184.851 124.485 184.041 125.15L133.648 166.671L127.727 171.547C114.962 181.056 99.13 186.68 81.9884 186.68C73.4212 186.68 65.1725 185.274 57.4778 182.677C27.2949 172.502 5.51308 144.037 5.31916 110.454C5.31223 110.419 5.31223 110.384 5.31916 110.35C5.36071 107.192 5.53386 104.068 5.84552 100.986C10.2989 62.8868 42.698 33.3134 81.9954 33.3134C105.536 33.3134 126.591 43.9169 140.651 60.6082C141.322 61.4047 141.253 62.589 140.519 63.3301C139.729 64.1197 138.448 64.1266 137.659 63.3301C125.954 51.5077 107.898 43.9308 87.6261 43.9308C52.3388 43.9308 23.735 66.9108 23.735 95.2583C23.735 123.606 52.3388 146.593 87.6261 146.593C87.6815 146.593 87.73 146.593 87.7854 146.593C96.6436 146.572 105.197 143.352 112.033 137.721L150 106.444L158 99.8502L158.228 99.6632C159.149 98.9013 159.219 97.5162 158.381 96.6712L157.328 95.6115L151.109 89.3436L146.33 84.5302C145.173 83.3597 145.81 81.372 147.438 81.1019L148.975 80.8456L152.688 80.2361L189.083 74.2383L212.333 70.4083L212.326 70.4153Z" fill="#9E25FF"/>
</g>
<g clip-path="url(#clip1_3229_187)">
<path d="M252.498 116.5V54.5329H260.992V116.5H252.498Z" fill="#FBFBFC"/>
<path d="M267.037 116.5L268.185 54.5329H276.679L287.622 104.794L298.646 54.5329H307.064L308.212 116.5H301.247L300.556 71.515L290.07 116.5H285.173L274.769 71.5208L274.078 116.506H267.037V116.5Z" fill="#FBFBFC"/>
<path d="M310.508 116.5L323.671 54.5329H332.012L345.251 116.5H337.062L334.233 100.894H321.603L318.621 116.5H310.508ZM322.751 94.6984H333.084L327.883 66.7775L322.757 94.6984H322.751Z" fill="#FBFBFC"/>
<path d="M362.163 117.267C358.285 117.267 355.186 116.441 352.866 114.778C350.547 113.121 348.86 110.714 347.817 107.546C346.768 104.384 346.247 100.584 346.247 96.1506V75.4208C346.247 70.8825 346.716 67.0176 347.665 63.832C348.608 60.6464 350.289 58.2104 352.714 56.5239C355.139 54.8432 358.519 54 362.854 54C366.732 54 369.854 54.65 372.227 55.95C374.599 57.25 376.321 59.241 377.393 61.9171C378.465 64.5933 378.998 67.9721 378.998 72.0537V74.3492H370.885V72.4343C370.885 69.7289 370.704 67.5271 370.346 65.8172C369.989 64.1072 369.263 62.8365 368.167 61.9933C367.072 61.15 365.35 60.7284 363.001 60.7284C360.447 60.7284 358.601 61.314 357.453 62.4852C356.305 63.6563 355.59 65.255 355.309 67.2694C355.028 69.2838 354.887 71.5676 354.887 74.1149V97.0641C354.887 100.021 355.104 102.498 355.538 104.484C355.971 106.475 356.803 107.95 358.027 108.922C359.252 109.894 360.985 110.375 363.229 110.375C365.473 110.375 367.207 109.842 368.431 108.77C369.655 107.698 370.499 106.117 370.956 104.027C371.412 101.936 371.647 99.3362 371.647 96.2209V91.9344H363.762V85.815H379.449V116.494H374.013L373.17 109.379C372.356 111.675 371.079 113.56 369.345 115.042C367.611 116.523 365.215 117.261 362.151 117.261L362.163 117.267Z" fill="#FBFBFC"/>
<path d="M384.968 116.5V54.5329H393.462V116.5H384.968Z" fill="#FBFBFC"/>
<path d="M399.659 116.5V54.5329H405.552L423.155 95.688V54.5329H430.348V116.5H424.836L407.005 74.1969V116.5H399.659Z" fill="#FBFBFC"/>
<path d="M436.236 116.5V54.5329H460.265V60.9568H444.882V81.4582H457.353V87.5776H444.882V110.298H460.417V116.494H436.236V116.5Z" fill="#FBFBFC"/>
<g opacity="0.9">
<path d="M252 161.637V125.12H259.937C262.644 125.12 264.788 125.535 266.363 126.361C267.939 127.187 269.07 128.428 269.743 130.08C270.417 131.731 270.757 133.792 270.757 136.258V149.691C270.757 152.273 270.417 154.458 269.743 156.226C269.064 158 267.969 159.347 266.451 160.261C264.934 161.18 262.896 161.637 260.342 161.637H252ZM257.096 157.983H259.984C261.847 157.983 263.171 157.62 263.95 156.899C264.729 156.179 265.204 155.125 265.368 153.743C265.532 152.361 265.614 150.692 265.614 148.736V136.878C265.614 134.987 265.491 133.453 265.25 132.281C265.01 131.11 264.483 130.255 263.675 129.711C262.866 129.166 261.583 128.897 259.844 128.897H257.09V157.971L257.096 157.983Z" fill="#FBFBFC"/>
<path d="M275.496 161.637V135.578H280.323V139.273C281.284 137.68 282.244 136.615 283.211 136.07C284.172 135.531 285.132 135.256 286.099 135.256H286.439C286.544 135.256 286.685 135.274 286.866 135.303V140.62C286.503 140.468 286.093 140.345 285.624 140.239C285.156 140.134 284.687 140.081 284.207 140.081C283.457 140.081 282.772 140.257 282.156 140.603C281.541 140.948 280.932 141.616 280.329 142.611V161.637H275.502H275.496Z" fill="#FBFBFC"/>
<path d="M297.053 162C295.008 162 293.427 161.602 292.32 160.805C291.207 160.009 290.433 158.838 290 157.292C289.56 155.746 289.344 153.843 289.344 151.588V145.639C289.344 143.326 289.566 141.399 290.017 139.871C290.468 138.336 291.259 137.183 292.384 136.398C293.509 135.619 295.067 135.227 297.053 135.227C299.249 135.227 300.86 135.678 301.903 136.58C302.94 137.481 303.625 138.781 303.953 140.48C304.281 142.178 304.451 144.216 304.451 146.587V148.707H294.171V153.936C294.171 154.991 294.27 155.845 294.464 156.507C294.657 157.169 294.973 157.655 295.412 157.971C295.846 158.287 296.414 158.445 297.105 158.445C297.797 158.445 298.377 158.276 298.751 157.924C299.126 157.579 299.384 157.081 299.519 156.437C299.654 155.793 299.724 155.032 299.724 154.159V152.584H304.416V153.573C304.416 156.191 303.86 158.246 302.747 159.751C301.634 161.256 299.741 162.006 297.064 162.006L297.053 162ZM294.165 146.084H299.712V143.741C299.712 142.658 299.654 141.75 299.531 141.013C299.408 140.275 299.162 139.718 298.787 139.344C298.412 138.969 297.814 138.781 297.006 138.781C296.197 138.781 295.629 138.963 295.225 139.32C294.821 139.683 294.54 140.292 294.393 141.147C294.241 142.002 294.171 143.185 294.171 144.684V146.084H294.165Z" fill="#FBFBFC"/>
<path d="M313.507 162C312.482 162 311.586 161.707 310.801 161.122C310.016 160.536 309.401 159.786 308.95 158.867C308.499 157.954 308.276 156.982 308.276 155.957C308.276 154.335 308.546 152.964 309.091 151.852C309.63 150.739 310.373 149.802 311.322 149.035C312.271 148.268 313.367 147.6 314.615 147.027C315.862 146.459 317.18 145.902 318.563 145.358V143.507C318.563 142.453 318.504 141.586 318.381 140.895C318.258 140.204 318.012 139.683 317.637 139.338C317.262 138.992 316.694 138.817 315.944 138.817C315.282 138.817 314.749 138.969 314.345 139.267C313.941 139.566 313.648 139.994 313.466 140.55C313.285 141.106 313.197 141.762 313.197 142.512V143.818L308.417 143.636C308.476 140.749 309.137 138.623 310.403 137.259C311.668 135.894 313.619 135.209 316.266 135.209C318.914 135.209 320.683 135.918 321.767 137.329C322.851 138.74 323.39 140.784 323.39 143.46V155.359C323.39 156.173 323.413 156.952 323.46 157.702C323.507 158.451 323.565 159.154 323.642 159.798C323.718 160.442 323.782 161.051 323.847 161.625H319.43C319.342 161.145 319.225 160.536 319.09 159.798C318.955 159.06 318.856 158.393 318.797 157.79C318.498 158.814 317.918 159.769 317.063 160.653C316.208 161.537 315.025 161.982 313.525 161.982L313.507 162ZM315.405 157.848C315.886 157.848 316.337 157.714 316.759 157.444C317.18 157.175 317.555 156.864 317.883 156.519C318.211 156.173 318.44 155.898 318.563 155.687V148.297C317.813 148.719 317.104 149.14 316.442 149.562C315.78 149.984 315.2 150.429 314.708 150.891C314.21 151.36 313.824 151.881 313.537 152.467C313.25 153.052 313.109 153.72 313.109 154.475C313.109 155.529 313.302 156.355 313.695 156.952C314.087 157.555 314.656 157.854 315.405 157.854V157.848Z" fill="#FBFBFC"/>
<path d="M328.029 161.637V135.578H332.493V138.055C333.366 137.066 334.327 136.328 335.381 135.848C336.435 135.367 337.513 135.127 338.626 135.127C339.587 135.127 340.454 135.367 341.221 135.848C341.989 136.328 342.539 137.183 342.867 138.418C343.799 137.276 344.812 136.445 345.913 135.918C347.009 135.391 348.163 135.127 349.364 135.127C350.207 135.127 350.975 135.332 351.666 135.736C352.357 136.14 352.914 136.79 353.335 137.675C353.757 138.559 353.968 139.724 353.968 141.171V161.637H349.551V141.487C349.551 140.222 349.346 139.379 348.942 138.94C348.538 138.506 347.987 138.284 347.296 138.284C346.605 138.284 345.943 138.471 345.222 138.846C344.502 139.221 343.84 139.742 343.236 140.403V161.637H338.819V141.487C338.819 140.222 338.614 139.379 338.21 138.94C337.806 138.506 337.255 138.284 336.564 138.284C335.873 138.284 335.217 138.471 334.514 138.846C333.805 139.221 333.137 139.742 332.505 140.403V161.637H328.041H328.029Z" fill="#FBFBFC"/>
<path d="M374.166 161.637L368.214 125.12H372.455L376.38 151.36L381.295 125.26H384.903L389.865 151.5L393.696 125.125H397.843L391.98 161.643H388.283L383.187 134.594L378.044 161.643H374.166V161.637Z" fill="#FBFBFC"/>
<path d="M408.616 162C406.688 162 405.171 161.608 404.058 160.829C402.945 160.05 402.154 158.937 401.692 157.491C401.229 156.045 400.995 154.352 400.995 152.396V144.825C400.995 142.869 401.229 141.171 401.692 139.73C402.16 138.29 402.945 137.177 404.058 136.392C405.171 135.613 406.688 135.221 408.616 135.221C410.543 135.221 412.048 135.613 413.15 136.392C414.245 137.177 415.03 138.284 415.493 139.73C415.956 141.171 416.19 142.869 416.19 144.825V152.396C416.19 154.352 415.956 156.05 415.493 157.491C415.024 158.932 414.245 160.044 413.15 160.829C412.054 161.614 410.543 162 408.616 162ZM408.616 158.434C409.547 158.434 410.203 158.164 410.578 157.62C410.953 157.075 411.181 156.367 411.258 155.477C411.334 154.592 411.369 153.667 411.369 152.707V144.549C411.369 143.56 411.328 142.629 411.258 141.756C411.181 140.884 410.959 140.169 410.578 139.613C410.203 139.057 409.547 138.781 408.616 138.781C407.684 138.781 407.022 139.063 406.63 139.613C406.237 140.169 406.003 140.884 405.933 141.756C405.857 142.629 405.822 143.56 405.822 144.549V152.707C405.822 153.667 405.857 154.592 405.933 155.477C406.009 156.361 406.243 157.075 406.63 157.62C407.022 158.159 407.684 158.434 408.616 158.434Z" fill="#FBFBFC"/>
<path d="M420.748 161.637V135.578H425.574V139.273C426.535 137.68 427.496 136.615 428.462 136.07C429.423 135.531 430.384 135.256 431.35 135.256H431.69C431.795 135.256 431.936 135.274 432.118 135.303V140.62C431.754 140.468 431.344 140.345 430.876 140.239C430.407 140.134 429.939 140.081 429.458 140.081C428.708 140.081 428.023 140.257 427.408 140.603C426.793 140.948 426.184 141.616 425.58 142.611V161.637H420.753H420.748Z" fill="#FBFBFC"/>
<path d="M435.539 161.637V125.12H440.365V161.637H435.539Z" fill="#FBFBFC"/>
<path d="M451.46 162C449.264 162 447.629 161.198 446.545 159.587C445.462 157.983 444.923 155.254 444.923 151.407V146.359C444.923 144.374 445.087 142.535 445.421 140.837C445.749 139.139 446.376 137.78 447.289 136.755C448.209 135.736 449.551 135.221 451.325 135.221C452.198 135.221 452.995 135.414 453.716 135.807C454.436 136.199 455.08 136.679 455.654 137.247V125.12H460.481V161.637H455.654V159.968C455.08 160.571 454.459 161.057 453.78 161.432C453.106 161.807 452.327 161.994 451.46 161.994V162ZM452.679 158.211C453.13 158.211 453.61 158.129 454.12 157.965C454.629 157.801 455.145 157.555 455.654 157.222V140.134C455.233 139.835 454.77 139.572 454.254 139.344C453.745 139.121 453.188 139.004 452.585 139.004C451.472 139.004 450.722 139.537 450.33 140.603C449.937 141.668 449.744 142.957 449.744 144.456V151.805C449.744 153.005 449.814 154.095 449.949 155.072C450.084 156.05 450.359 156.818 450.781 157.374C451.202 157.93 451.835 158.205 452.673 158.205L452.679 158.211Z" fill="#FBFBFC"/>
<path d="M476.081 161.637V125.12H481.177V157.983H490.515V161.637H476.081Z" fill="#FBFBFC"/>
<path d="M500.52 162C499.167 162 498.077 161.742 497.251 161.233C496.425 160.723 495.822 160.003 495.447 159.066C495.072 158.135 494.885 157.04 494.885 155.775V138.781H492.131V135.578H494.885V127.96H499.711V135.578H503.906V138.781H499.711V155.459C499.711 156.484 499.875 157.21 500.209 157.643C500.537 158.077 501.17 158.299 502.101 158.299C502.342 158.299 502.623 158.281 502.933 158.252C503.25 158.223 503.554 158.194 503.859 158.164V161.725C503.255 161.813 502.699 161.883 502.189 161.93C501.68 161.977 501.123 162 500.52 162Z" fill="#FBFBFC"/>
<path d="M513.507 162C511.31 162 509.676 161.198 508.592 159.587C507.508 157.983 506.969 155.254 506.969 151.407V146.359C506.969 144.374 507.133 142.535 507.467 140.837C507.795 139.139 508.422 137.78 509.336 136.755C510.255 135.736 511.597 135.221 513.372 135.221C514.245 135.221 515.041 135.414 515.762 135.807C516.482 136.199 517.127 136.679 517.701 137.247V125.12H522.528V161.637H517.701V159.968C517.127 160.571 516.506 161.057 515.826 161.432C515.153 161.807 514.374 161.994 513.507 161.994V162ZM514.725 158.211C515.176 158.211 515.656 158.129 516.166 157.965C516.676 157.801 517.191 157.555 517.701 157.222V140.134C517.279 139.835 516.816 139.572 516.301 139.344C515.791 139.121 515.235 139.004 514.631 139.004C513.518 139.004 512.769 139.537 512.376 140.603C511.984 141.668 511.79 142.957 511.79 144.456V151.805C511.79 153.005 511.861 154.095 511.995 155.072C512.13 156.05 512.405 156.818 512.827 157.374C513.249 157.93 513.882 158.205 514.719 158.205L514.725 158.211Z" fill="#FBFBFC"/>
<path d="M527.173 161.637V156.273H532V161.637H527.173Z" fill="#FBFBFC"/>
</g>
</g>
<defs>
<clipPath id="clip0_3229_187">
<rect width="220" height="220" fill="white"/>
</clipPath>
<clipPath id="clip1_3229_187">
<rect width="280" height="108" fill="white" transform="translate(252 54)"/>
</clipPath>
</defs>
</svg>
