<svg width="280" height="328" viewBox="0 0 280 328" fill="none" xmlns="http://www.w3.org/2000/svg">
<g clip-path="url(#clip0_3229_512)">
<path d="M233.024 64.0139C234.295 63.8061 235.385 64.9331 235.126 66.1924L229.221 95.7217L223.617 123.753C223.327 125.201 221.539 125.736 220.5 124.691L209.79 113.899C209.123 113.225 208.046 113.169 207.31 113.773L161.498 151.519L156.115 155.952C144.511 164.596 130.118 169.709 114.535 169.709C106.746 169.709 99.2474 168.431 92.2523 166.07C64.8132 156.82 45.0116 130.943 44.8353 100.412C44.829 100.381 44.829 100.349 44.8353 100.318C44.8731 97.4469 45.0305 94.6073 45.3138 91.8055C49.3623 57.1699 78.8161 30.2849 114.541 30.2849C135.942 30.2849 155.082 39.9245 167.864 55.0984C168.475 55.8225 168.412 56.8991 167.744 57.5728C167.026 58.2906 165.862 58.2969 165.144 57.5728C154.503 46.8251 138.089 39.937 119.66 39.937C87.5804 39.937 61.577 60.828 61.577 86.5985C61.577 112.369 87.5804 133.266 119.66 133.266C119.71 133.266 119.754 133.266 119.805 133.266C127.857 133.247 135.633 130.32 141.848 125.201L176.364 96.7669L183.636 90.7729L183.844 90.6029C184.681 89.9103 184.744 88.651 183.982 87.8829L183.025 86.9196L177.371 81.2215L173.027 76.8456C171.975 75.7815 172.554 73.9745 174.034 73.729L175.432 73.496L178.807 72.9419L211.893 67.4894L233.03 64.0076L233.024 64.0139Z" fill="#9E25FF"/>
</g>
<g clip-path="url(#clip1_3229_512)">
<path d="M36 282.5V220.533H44.4939V282.5H36Z" fill="#FBFBFC"/>
<path d="M50.5391 282.5L51.6872 220.533H60.1811L71.1236 270.794L82.1481 220.533H90.5658L91.714 282.5H84.749L84.0577 237.515L73.5722 282.5H68.675L58.2714 237.521L57.5802 282.506H50.5391V282.5Z" fill="#FBFBFC"/>
<path d="M94.0103 282.5L107.173 220.533H115.514L128.753 282.5H120.564L117.735 266.894H105.105L102.123 282.5H94.0103ZM106.253 260.698H116.586L111.385 232.778L106.259 260.698H106.253Z" fill="#FBFBFC"/>
<path d="M145.665 283.267C141.787 283.267 138.688 282.441 136.368 280.778C134.049 279.121 132.362 276.714 131.319 273.546C130.27 270.384 129.749 266.584 129.749 262.151V241.421C129.749 236.883 130.218 233.018 131.167 229.832C132.11 226.646 133.791 224.21 136.216 222.524C138.641 220.843 142.021 220 146.356 220C150.234 220 153.356 220.65 155.729 221.95C158.101 223.25 159.823 225.241 160.895 227.917C161.967 230.593 162.5 233.972 162.5 238.054V240.349H154.387V238.434C154.387 235.729 154.206 233.527 153.848 231.817C153.491 230.107 152.765 228.837 151.669 227.993C150.574 227.15 148.852 226.728 146.503 226.728C143.948 226.728 142.103 227.314 140.955 228.485C139.807 229.656 139.092 231.255 138.811 233.269C138.53 235.284 138.389 237.568 138.389 240.115V263.064C138.389 266.021 138.606 268.498 139.04 270.484C139.473 272.475 140.305 273.95 141.529 274.922C142.753 275.894 144.487 276.375 146.731 276.375C148.975 276.375 150.708 275.842 151.933 274.77C153.157 273.698 154.001 272.117 154.457 270.027C154.914 267.936 155.149 265.336 155.149 262.221V257.934H147.264V251.815H162.951V282.494H157.515L156.672 275.379C155.858 277.675 154.581 279.56 152.847 281.042C151.113 282.523 148.717 283.261 145.653 283.261L145.665 283.267Z" fill="#FBFBFC"/>
<path d="M168.47 282.5V220.533H176.964V282.5H168.47Z" fill="#FBFBFC"/>
<path d="M183.161 282.5V220.533H189.054L206.657 261.688V220.533H213.85V282.5H208.338L190.507 240.197V282.5H183.161Z" fill="#FBFBFC"/>
<path d="M219.738 282.5V220.533H243.767V226.957H228.384V247.458H240.855V253.578H228.384V276.299H243.919V282.494H219.738V282.5Z" fill="#FBFBFC"/>
<g opacity="0.9">
<path d="M0 327.637V291.12H7.9374C10.6437 291.12 12.7877 291.535 14.3635 292.361C15.9392 293.187 17.0698 294.428 17.7435 296.08C18.4171 297.731 18.7569 299.792 18.7569 302.258V315.691C18.7569 318.273 18.4171 320.458 17.7435 322.226C17.0639 324 15.9685 325.347 14.4513 326.261C12.9341 327.18 10.8956 327.637 8.34159 327.637H0ZM5.09634 323.983H7.98426C9.84706 323.983 11.1709 323.62 11.95 322.899C12.7291 322.179 13.2036 321.125 13.3676 319.743C13.5317 318.361 13.6137 316.692 13.6137 314.736V302.878C13.6137 300.987 13.4906 299.453 13.2505 298.281C13.0103 297.11 12.4831 296.255 11.6747 295.711C10.8663 295.166 9.58346 294.897 7.84367 294.897H5.09048V323.971L5.09634 323.983Z" fill="#FBFBFC"/>
<path d="M23.4961 327.637V301.578H28.323V305.273C29.2837 303.68 30.2443 302.615 31.2109 302.07C32.1716 301.531 33.1323 301.256 34.0988 301.256H34.4386C34.544 301.256 34.6846 301.274 34.8662 301.303V306.62C34.503 306.468 34.093 306.345 33.6243 306.239C33.1557 306.134 32.6871 306.081 32.2067 306.081C31.4569 306.081 30.7716 306.257 30.1565 306.603C29.5414 306.948 28.9322 307.616 28.3288 308.611V327.637H23.502H23.4961Z" fill="#FBFBFC"/>
<path d="M45.0527 328C43.0083 328 41.4267 327.602 40.3195 326.805C39.2066 326.009 38.4333 324.838 37.9998 323.292C37.5605 321.746 37.3438 319.843 37.3438 317.588V311.639C37.3438 309.325 37.5663 307.399 38.0174 305.871C38.4685 304.336 39.2593 303.183 40.384 302.398C41.5087 301.619 43.0669 301.227 45.0527 301.227C47.2494 301.227 48.8603 301.678 49.903 302.58C50.9399 303.481 51.6252 304.781 51.9533 306.48C52.2813 308.178 52.4512 310.216 52.4512 312.587V314.707H42.1706V319.936C42.1706 320.99 42.2702 321.845 42.4635 322.507C42.6568 323.169 42.9732 323.655 43.4125 323.971C43.846 324.287 44.4142 324.445 45.1054 324.445C45.7966 324.445 46.3766 324.276 46.7515 323.924C47.1264 323.579 47.3841 323.081 47.5189 322.437C47.6536 321.793 47.7239 321.031 47.7239 320.159V318.584H52.416V319.573C52.416 322.191 51.8595 324.246 50.7465 325.751C49.6335 327.256 47.7415 328.006 45.0644 328.006L45.0527 328ZM42.1648 312.084H47.7122V309.741C47.7122 308.658 47.6536 307.75 47.5306 307.012C47.4076 306.275 47.1615 305.718 46.7866 305.343C46.4117 304.969 45.8142 304.781 45.0058 304.781C44.1975 304.781 43.6292 304.963 43.225 305.32C42.8209 305.683 42.5397 306.292 42.3932 307.147C42.2409 308.002 42.1706 309.185 42.1706 310.684V312.084H42.1648Z" fill="#FBFBFC"/>
<path d="M61.5074 328C60.4823 328 59.5861 327.707 58.8011 327.122C58.0162 326.536 57.4011 325.786 56.95 324.867C56.499 323.953 56.2764 322.981 56.2764 321.957C56.2764 320.335 56.5458 318.964 57.0906 317.852C57.6295 316.739 58.3735 315.802 59.3225 315.035C60.2714 314.268 61.3668 313.6 62.6146 313.026C63.8623 312.458 65.1803 311.902 66.5628 311.357V309.507C66.5628 308.453 66.5042 307.586 66.3812 306.895C66.2582 306.204 66.0121 305.683 65.6372 305.338C65.2623 304.992 64.6941 304.816 63.9443 304.816C63.2824 304.816 62.7493 304.969 62.3451 305.267C61.9409 305.566 61.648 305.993 61.4664 306.55C61.2848 307.106 61.197 307.762 61.197 308.512V309.817L56.417 309.636C56.4755 306.749 57.1375 304.623 58.4028 303.259C59.6681 301.894 61.6187 301.209 64.2665 301.209C66.9142 301.209 68.6833 301.918 69.767 303.329C70.8507 304.74 71.3897 306.784 71.3897 309.46V321.359C71.3897 322.173 71.4131 322.952 71.4599 323.702C71.5068 324.451 71.5654 325.154 71.6415 325.798C71.7177 326.442 71.7821 327.051 71.8466 327.625H67.4297C67.3419 327.145 67.2247 326.536 67.09 325.798C66.9552 325.06 66.8557 324.393 66.7971 323.79C66.4983 324.814 65.9184 325.769 65.0632 326.653C64.2079 327.537 63.0246 327.982 61.525 327.982L61.5074 328ZM63.4054 323.848C63.8857 323.848 64.3368 323.713 64.7586 323.444C65.1803 323.175 65.5552 322.864 65.8833 322.519C66.2113 322.173 66.4398 321.898 66.5628 321.687V314.297C65.813 314.719 65.1042 315.14 64.4422 315.562C63.7803 315.984 63.2004 316.429 62.7083 316.891C62.2104 317.36 61.8238 317.881 61.5367 318.467C61.2497 319.052 61.1091 319.72 61.1091 320.475C61.1091 321.529 61.3024 322.355 61.6949 322.952C62.0874 323.555 62.6556 323.854 63.4054 323.854V323.848Z" fill="#FBFBFC"/>
<path d="M76.0293 327.637V301.578H80.493V304.055C81.3658 303.066 82.3265 302.328 83.3809 301.848C84.4353 301.368 85.5132 301.127 86.6262 301.127C87.5869 301.127 88.4538 301.368 89.2212 301.848C89.9886 302.328 90.5392 303.183 90.8673 304.418C91.7987 303.277 92.8121 302.445 93.9134 301.918C95.0088 301.391 96.1628 301.127 97.3636 301.127C98.2072 301.127 98.9746 301.332 99.6658 301.736C100.357 302.141 100.914 302.791 101.335 303.675C101.757 304.559 101.968 305.724 101.968 307.171V327.637H97.5511V307.487C97.5511 306.222 97.3461 305.379 96.9419 304.94C96.5377 304.506 95.987 304.284 95.2958 304.284C94.6046 304.284 93.9426 304.471 93.2221 304.846C92.5016 305.221 91.8397 305.742 91.2363 306.404V327.637H86.8195V307.487C86.8195 306.222 86.6145 305.379 86.2103 304.94C85.8061 304.506 85.2554 304.284 84.5642 304.284C83.873 304.284 83.2169 304.471 82.514 304.846C81.8052 305.221 81.1374 305.742 80.5047 306.404V327.637H76.041H76.0293Z" fill="#FBFBFC"/>
<path d="M122.166 327.637L116.214 291.12H120.455L124.38 317.36L129.295 291.26H132.903L137.865 317.5L141.696 291.125H145.843L139.98 327.643H136.283L131.187 300.594L126.044 327.643H122.166V327.637Z" fill="#FBFBFC"/>
<path d="M156.616 328C154.688 328 153.171 327.608 152.058 326.829C150.945 326.05 150.154 324.937 149.692 323.491C149.229 322.044 148.995 320.352 148.995 318.396V310.825C148.995 308.869 149.229 307.171 149.692 305.73C150.16 304.289 150.945 303.177 152.058 302.392C153.171 301.613 154.688 301.221 156.616 301.221C158.543 301.221 160.048 301.613 161.15 302.392C162.245 303.177 163.03 304.284 163.493 305.73C163.956 307.171 164.19 308.869 164.19 310.825V318.396C164.19 320.352 163.956 322.05 163.493 323.491C163.024 324.931 162.245 326.044 161.15 326.829C160.054 327.613 158.543 328 156.616 328ZM156.616 324.434C157.547 324.434 158.203 324.164 158.578 323.62C158.953 323.075 159.181 322.367 159.258 321.476C159.334 320.592 159.369 319.667 159.369 318.707V310.549C159.369 309.56 159.328 308.629 159.258 307.756C159.181 306.884 158.959 306.169 158.578 305.613C158.203 305.057 157.547 304.781 156.616 304.781C155.684 304.781 155.022 305.062 154.63 305.613C154.237 306.169 154.003 306.884 153.933 307.756C153.857 308.629 153.822 309.56 153.822 310.549V318.707C153.822 319.667 153.857 320.592 153.933 321.476C154.009 322.361 154.243 323.075 154.63 323.62C155.022 324.158 155.684 324.434 156.616 324.434Z" fill="#FBFBFC"/>
<path d="M168.748 327.637V301.578H173.574V305.273C174.535 303.68 175.496 302.615 176.462 302.07C177.423 301.531 178.384 301.256 179.35 301.256H179.69C179.795 301.256 179.936 301.274 180.118 301.303V306.62C179.754 306.468 179.344 306.345 178.876 306.239C178.407 306.134 177.939 306.081 177.458 306.081C176.708 306.081 176.023 306.257 175.408 306.603C174.793 306.948 174.184 307.616 173.58 308.611V327.637H168.753H168.748Z" fill="#FBFBFC"/>
<path d="M183.539 327.637V291.12H188.365V327.637H183.539Z" fill="#FBFBFC"/>
<path d="M199.46 328C197.264 328 195.629 327.198 194.545 325.587C193.462 323.983 192.923 321.254 192.923 317.407V312.359C192.923 310.374 193.087 308.535 193.421 306.837C193.749 305.139 194.376 303.78 195.289 302.755C196.209 301.736 197.551 301.221 199.325 301.221C200.198 301.221 200.995 301.414 201.716 301.807C202.436 302.199 203.08 302.679 203.654 303.247V291.12H208.481V327.637H203.654V325.968C203.08 326.571 202.459 327.057 201.78 327.432C201.106 327.807 200.327 327.994 199.46 327.994V328ZM200.679 324.211C201.13 324.211 201.61 324.129 202.12 323.965C202.629 323.801 203.145 323.555 203.654 323.222V306.134C203.233 305.835 202.77 305.572 202.254 305.344C201.745 305.121 201.188 305.004 200.585 305.004C199.472 305.004 198.722 305.537 198.33 306.603C197.937 307.668 197.744 308.957 197.744 310.456V317.805C197.744 319.005 197.814 320.095 197.949 321.072C198.084 322.05 198.359 322.818 198.781 323.374C199.202 323.93 199.835 324.205 200.673 324.205L200.679 324.211Z" fill="#FBFBFC"/>
<path d="M224.081 327.637V291.12H229.177V323.983H238.515V327.637H224.081Z" fill="#FBFBFC"/>
<path d="M248.52 328C247.167 328 246.077 327.742 245.251 327.233C244.425 326.723 243.822 326.003 243.447 325.066C243.072 324.135 242.885 323.04 242.885 321.775V304.781H240.131V301.578H242.885V293.96H247.711V301.578H251.906V304.781H247.711V321.459C247.711 322.484 247.875 323.21 248.209 323.643C248.537 324.077 249.17 324.299 250.101 324.299C250.342 324.299 250.623 324.281 250.933 324.252C251.25 324.223 251.554 324.194 251.859 324.164V327.725C251.255 327.813 250.699 327.883 250.189 327.93C249.68 327.977 249.123 328 248.52 328Z" fill="#FBFBFC"/>
<path d="M261.507 328C259.31 328 257.676 327.198 256.592 325.587C255.508 323.983 254.969 321.254 254.969 317.407V312.359C254.969 310.374 255.133 308.535 255.467 306.837C255.795 305.139 256.422 303.78 257.336 302.755C258.255 301.736 259.597 301.221 261.372 301.221C262.245 301.221 263.041 301.414 263.762 301.807C264.482 302.199 265.127 302.679 265.701 303.247V291.12H270.528V327.637H265.701V325.968C265.127 326.571 264.506 327.057 263.826 327.432C263.153 327.807 262.374 327.994 261.507 327.994V328ZM262.725 324.211C263.176 324.211 263.656 324.129 264.166 323.965C264.676 323.801 265.191 323.555 265.701 323.222V306.134C265.279 305.835 264.816 305.572 264.301 305.344C263.791 305.121 263.235 305.004 262.631 305.004C261.518 305.004 260.769 305.537 260.376 306.603C259.984 307.668 259.79 308.957 259.79 310.456V317.805C259.79 319.005 259.861 320.095 259.995 321.072C260.13 322.05 260.405 322.818 260.827 323.374C261.249 323.93 261.882 324.205 262.719 324.205L262.725 324.211Z" fill="#FBFBFC"/>
<path d="M275.173 327.637V322.273H280V327.637H275.173Z" fill="#FBFBFC"/>
</g>
</g>
<defs>
<clipPath id="clip0_3229_512">
<rect width="200" height="200" fill="white" transform="translate(40)"/>
</clipPath>
<clipPath id="clip1_3229_512">
<rect width="280" height="108" fill="white" transform="translate(0 220)"/>
</clipPath>
</defs>
</svg>
